<svg width="24" height="24" viewBox="0 0 24 24" fill="none" xmlns="http://www.w3.org/2000/svg">
<path fill-rule="evenodd" clip-rule="evenodd" d="M12.0217 2L21.0303 6.61576V11.2389H19.1048V17.8703H20.0057L20.0054 19.9505L22.0271 19.9516V22H1.97296V19.9516L3.996 19.9505L3.99681 17.8703H4.91489V11.2389H2.97218V6.61576L12.0217 2ZM10.9397 11.2389H6.96415V17.8703H10.9397V11.2389ZM17.0555 11.2389H12.989V17.8703H17.0555V11.2389ZM12.0135 6.18132C11.4315 6.18132 10.9479 6.65675 10.9479 7.24694C10.9479 7.83712 11.4315 8.31255 12.0135 8.31255C12.6037 8.31255 13.0792 7.83712 13.0792 7.24694C13.0792 6.65675 12.6037 6.18132 12.0135 6.18132Z" fill="#081F42"/>
</svg>
