<svg width="24" height="24" viewBox="0 0 24 24" fill="none" xmlns="http://www.w3.org/2000/svg">
<path d="M0 19H24V5H0V19Z" fill="#1A1876"/>
<path fill-rule="evenodd" clip-rule="evenodd" d="M13.4354 11.0182C13.4322 11.2593 13.7329 11.4185 14.2236 11.6568C15.0337 12.0242 15.4076 12.4702 15.4049 13.0566C15.3942 14.1255 14.4361 14.8163 12.9599 14.8163C12.4263 14.8195 11.8965 14.7263 11.396 14.5414L11.5929 13.3885C12.0557 13.6318 12.5728 13.7531 13.0955 13.7409C13.4995 13.7409 13.932 13.5827 13.9358 13.2373C13.9384 13.0119 13.7545 12.8511 13.2079 12.5988C12.6769 12.3535 11.97 11.9403 11.9776 11.2001C11.9835 10.1995 12.9631 9.5001 14.3505 9.5001C14.7796 9.49685 15.2058 9.5697 15.6094 9.71529L15.4189 10.8316C15.053 10.6528 14.6495 10.5648 14.2424 10.575C13.6899 10.575 13.4354 10.8031 13.4354 11.0182ZM10.5138 14.7399H9.11021L9.98817 9.58833H11.3923L10.5138 14.7399ZM18.1222 9.59318H19.2073L20.344 14.7377H19.041C19.041 14.7377 18.9119 14.1465 18.87 13.9658H17.0716C17.0172 14.1051 16.7762 14.7399 16.7762 14.7399H15.3017L17.3868 10.0203C17.5073 9.72813 17.8087 9.55303 18.1222 9.59318ZM18.2217 10.9822C18.1071 11.2937 17.5342 12.765 17.4761 12.914H18.6413C18.4529 12.0484 18.3882 11.7538 18.3559 11.6068L18.33 11.4888C18.3166 11.427 18.3034 11.3652 18.2658 11.1888L18.2657 11.1883L18.2217 10.9822ZM6.55756 13.105L7.9326 9.59209L9.41954 9.59424L7.20904 14.7361H5.72318L4.4751 10.2619C4.01098 10.0081 3.51483 9.81793 3 9.69646L3.01775 9.58886H5.28205C5.57316 9.55492 5.84482 9.74054 5.919 10.0241L6.41124 12.3911L6.55756 13.105Z" fill="white"/>
</svg>
